<svg xmlns="http://www.w3.org/2000/svg" viewBox="0 0 224 224" role="img" aria-labelledby="title">
  <title id="title">Analise de treino</title>
  <rect width="224" height="224" rx="24" fill="#101828" />
  <path
    d="M34 154c24-42 42-42 63-20 25 26 43 9 72-54"
    fill="none"
    stroke="#36d399"
    stroke-linecap="round"
    stroke-linejoin="round"
    stroke-width="12"
  />
  <g fill="#ffffff" opacity=".92">
    <rect x="42" y="108" width="18" height="58" rx="6" />
    <rect x="78" y="82" width="18" height="84" rx="6" />
    <rect x="114" y="116" width="18" height="50" rx="6" />
    <rect x="150" y="62" width="18" height="104" rx="6" />
  </g>
  <g transform="translate(54 42)" fill="none" stroke="#ff8a1f" stroke-linecap="round" stroke-width="9">
    <path d="M0 21h116" />
    <path d="M18 6v30M98 6v30" />
    <path d="M32 13v16M84 13v16" />
  </g>
  <circle cx="169" cy="80" r="18" fill="#29498b" stroke="#ffffff" stroke-width="7" />
  <path
    d="M161 80h16m-8-8v16"
    stroke="#ffffff"
    stroke-linecap="round"
    stroke-width="6"
  />
</svg>
